<?xml version="1.0" encoding="iso-8859-1"?>
<!-- Generator: Adobe Illustrator 19.0.0, SVG Export Plug-In . SVG Version: 6.00 Build 0)  -->
<svg version="1.1" id="Layer_1" xmlns="http://www.w3.org/2000/svg" xmlns:xlink="http://www.w3.org/1999/xlink" x="0px" y="0px"
	 viewBox="0 0 460 460" style="enable-background:new 0 0 460 460;" xml:space="preserve">
<g>
	<g>
		<g>
			<path d="M367.288,445C364,384.623,321.283,333.146,262.5,318.958V137.302c24.457-12.244,40-37.152,40-64.802
				C302.5,32.523,269.977,0,230,0s-72.5,32.523-72.5,72.5c0,27.65,15.543,52.558,40,64.802v181.651
				c-46.278,11.133-83.64,45.61-98.332,91.227c-3.658,11.242-5.8,22.926-6.442,34.82H25v15h410v-15H367.288z M172.5,72.5
				c0-31.706,25.794-57.5,57.5-57.5s57.5,25.794,57.5,57.5c0,23.279-13.89,44.113-35.378,53.074
				C245.056,128.511,237.613,130,230,130c-7.613,0-15.056-1.489-22.122-4.426C186.386,116.608,172.5,95.776,172.5,72.5z
				 M107.726,445c0.514-8.495,1.916-16.858,4.165-25H315v-15H117.081c15.691-37.431,49.086-64.862,89.341-72.636l6.078-1.174
				V142.855c5.709,1.423,11.562,2.145,17.5,2.145c5.937,0,11.79-0.722,17.5-2.145v188.33l6.072,1.178
				c54.856,10.641,95.319,57.374,98.699,112.637H107.726z"/>
			<path d="M230,50V35c-20.678,0-37.5,16.822-37.5,37.5h15C207.5,60.093,217.593,50,230,50z"/>
		</g>
	</g>
</g>
<g>
</g>
<g>
</g>
<g>
</g>
<g>
</g>
<g>
</g>
<g>
</g>
<g>
</g>
<g>
</g>
<g>
</g>
<g>
</g>
<g>
</g>
<g>
</g>
<g>
</g>
<g>
</g>
<g>
</g>
</svg>
